<svg width="174" height="168" viewBox="0 0 174 168" fill="none" xmlns="http://www.w3.org/2000/svg">
<path d="M163.836 103.057C166.668 90.7541 166.721 77.9633 163.992 65.6366C161.264 53.3099 155.823 41.7648 148.076 31.8606C140.328 21.9564 130.473 13.9482 119.244 8.43198C108.015 2.9158 95.7015 0.033728 83.2197 0.000294212C70.7379 -0.0331396 58.4093 2.78292 47.1517 8.23887C35.8941 13.6948 25.9974 21.6501 18.1981 31.5127C10.3988 41.3753 4.89791 52.8911 2.10479 65.203C-0.688321 77.5149 -0.701702 90.3058 2.06565 102.624L10.1648 100.76C7.67436 89.6748 7.68641 78.1638 10.2 67.084C12.7136 56.0042 17.6641 45.6408 24.6828 36.7651C31.7016 27.8895 40.608 20.7303 50.7391 15.8203C60.8701 10.9104 71.9649 8.3761 83.1977 8.40619C94.4304 8.43627 105.512 11.0299 115.617 15.9941C125.722 20.9583 134.591 28.1651 141.563 37.0782C148.536 45.9913 153.432 56.3811 155.887 67.4742C158.343 78.5674 158.295 90.0782 155.747 101.15L163.836 103.057Z" fill="#D91227"/>
<path d="M144.383 97.839C146.499 88.9048 146.539 79.6162 144.5 70.6647C142.462 61.7132 138.398 53.3292 132.611 46.1369C126.823 38.9445 119.462 33.129 111.074 29.1232C102.686 25.1174 93.4879 23.0245 84.1641 23.0002C74.8403 22.9759 65.6311 25.0209 57.2218 28.983C48.8125 32.945 41.4197 38.7221 35.5938 45.8842C29.7678 53.0463 25.6587 61.409 23.5723 70.3498C21.4858 79.2906 21.4758 88.5792 23.543 97.5243L31.4719 95.7506C29.6759 87.9786 29.6846 79.9082 31.4973 72.14C33.3101 64.3718 36.8803 57.1059 41.9422 50.8831C47.0041 44.6603 53.4273 39.6409 60.7337 36.1985C68.0402 32.756 76.0416 30.9792 84.1426 31.0003C92.2435 31.0214 100.235 32.8399 107.523 36.3203C114.811 39.8007 121.207 44.8535 126.235 51.1026C131.264 57.3517 134.795 64.6361 136.566 72.4136C138.337 80.1911 138.302 88.2615 136.464 96.024L144.383 97.839Z" fill="#D91227"/>
<path d="M123.905 95.0747C125.338 89.2162 125.365 83.1254 123.984 77.2555C122.603 71.3857 119.85 65.888 115.93 61.1717C112.009 56.4554 107.022 52.642 101.34 50.0152C95.6582 47.3885 89.4273 46.0161 83.1112 46.0001C76.7951 45.9842 70.5565 47.3252 64.8599 49.9233C59.1633 52.5213 54.1553 56.3096 50.2087 61.0061C46.2621 65.7025 43.4785 71.1862 42.0651 77.049C40.6517 82.9118 40.6449 89.0027 42.0453 94.8684L49.3513 93.2863C48.2008 88.4671 48.2063 83.4627 49.3676 78.6458C50.5288 73.8289 52.8159 69.3234 56.0584 65.4648C59.301 61.6062 63.4156 58.4937 68.096 56.3591C72.7764 54.2245 77.902 53.1228 83.0913 53.1358C88.2807 53.1489 93.4001 54.2765 98.0686 56.4347C102.737 58.5928 106.834 61.726 110.055 65.6009C113.276 69.4758 115.538 73.9928 116.673 78.8155C117.807 83.6382 117.785 88.6425 116.608 93.4559L123.905 95.0747Z" fill="#D91227"/>
<path d="M8.792 119.2H12.944C14.112 119.2 15.152 119.344 16.064 119.632C16.992 119.904 17.72 120.344 18.248 120.952C18.776 121.544 19.04 122.328 19.04 123.304C19.04 124.04 18.896 124.664 18.608 125.176C18.336 125.688 17.976 126.08 17.528 126.352C17.08 126.624 16.608 126.792 16.112 126.856C16.912 126.92 17.632 127.144 18.272 127.528C18.928 127.912 19.44 128.424 19.808 129.064C20.176 129.704 20.36 130.456 20.36 131.32C20.36 132.344 20.08 133.208 19.52 133.912C18.96 134.6 18.168 135.12 17.144 135.472C16.136 135.824 14.96 136 13.616 136H11.24C11.24 136 11.24 135.912 11.24 135.736C11.256 135.544 11.264 135.36 11.264 135.184C11.264 135.008 11.264 134.92 11.264 134.92H12.56C13.28 134.92 13.912 134.784 14.456 134.512C15.016 134.24 15.448 133.816 15.752 133.24C16.072 132.664 16.232 131.928 16.232 131.032C16.232 130.328 16.12 129.728 15.896 129.232C15.688 128.736 15.4 128.336 15.032 128.032C14.68 127.712 14.264 127.48 13.784 127.336C13.304 127.192 12.8 127.12 12.272 127.12V126.904C12.64 126.904 13 126.848 13.352 126.736C13.704 126.608 14.016 126.416 14.288 126.16C14.576 125.904 14.8 125.568 14.96 125.152C15.12 124.72 15.2 124.208 15.2 123.616C15.2 122.8 15.072 122.144 14.816 121.648C14.576 121.152 14.224 120.792 13.76 120.568C13.296 120.344 12.76 120.232 12.152 120.232H9.032C9.032 120.216 9.008 120.128 8.96 119.968C8.928 119.792 8.888 119.624 8.84 119.464C8.808 119.288 8.792 119.2 8.792 119.2ZM11.456 119.2V136H7.856V119.2H11.456ZM7.928 134.248V136H6.008V135.76C6.04 135.76 6.096 135.76 6.176 135.76C6.256 135.76 6.304 135.76 6.32 135.76C6.736 135.76 7.088 135.616 7.376 135.328C7.68 135.024 7.84 134.664 7.856 134.248H7.928ZM7.928 120.952H7.856C7.84 120.536 7.68 120.184 7.376 119.896C7.088 119.592 6.736 119.44 6.32 119.44C6.304 119.44 6.256 119.44 6.176 119.44C6.096 119.44 6.04 119.44 6.008 119.44V119.2H7.928V120.952ZM31.9651 121.288C33.2451 121.288 34.4051 121.464 35.4451 121.816C36.4851 122.152 37.3811 122.648 38.1331 123.304C38.8851 123.96 39.4611 124.752 39.8611 125.68C40.2771 126.608 40.4851 127.656 40.4851 128.824C40.4851 129.976 40.2771 131.016 39.8611 131.944C39.4611 132.856 38.8851 133.64 38.1331 134.296C37.3811 134.952 36.4851 135.456 35.4451 135.808C34.4051 136.144 33.2451 136.312 31.9651 136.312C30.7011 136.312 29.5491 136.144 28.5091 135.808C27.4691 135.456 26.5731 134.952 25.8211 134.296C25.0691 133.64 24.4931 132.856 24.0931 131.944C23.6931 131.016 23.4931 129.976 23.4931 128.824C23.4931 127.656 23.6931 126.608 24.0931 125.68C24.4931 124.752 25.0691 123.96 25.8211 123.304C26.5731 122.648 27.4691 122.152 28.5091 121.816C29.5491 121.464 30.7011 121.288 31.9651 121.288ZM31.9651 135.376C32.9411 135.376 33.7891 135.112 34.5091 134.584C35.2451 134.04 35.8051 133.28 36.1891 132.304C36.5891 131.328 36.7891 130.168 36.7891 128.824C36.7891 127.464 36.5891 126.296 36.1891 125.32C35.8051 124.328 35.2451 123.568 34.5091 123.04C33.7891 122.496 32.9411 122.224 31.9651 122.224C31.0051 122.224 30.1651 122.496 29.4451 123.04C28.7251 123.568 28.1651 124.328 27.7651 125.32C27.3651 126.296 27.1651 127.464 27.1651 128.824C27.1651 130.168 27.3651 131.328 27.7651 132.304C28.1651 133.28 28.7251 134.04 29.4451 134.584C30.1651 135.112 31.0051 135.376 31.9651 135.376ZM47.9596 121.6V130.648C47.9596 132.12 48.2956 133.272 48.9676 134.104C49.6556 134.936 50.6076 135.352 51.8236 135.352C53.0876 135.352 54.0636 134.96 54.7516 134.176C55.4556 133.392 55.8156 132.304 55.8316 130.912V121.6H57.4156V130.768C57.4156 132.48 56.8876 133.832 55.8316 134.824C54.7916 135.816 53.3116 136.312 51.3916 136.312C49.0716 136.312 47.3436 135.824 46.2076 134.848C45.0716 133.856 44.5036 132.504 44.5036 130.792V121.6H47.9596ZM44.5516 121.6V122.848H44.5036C44.4876 122.544 44.3756 122.296 44.1676 122.104C43.9596 121.912 43.7036 121.816 43.3996 121.816C43.3996 121.816 43.3436 121.816 43.2316 121.816C43.1196 121.816 43.0636 121.816 43.0636 121.816V121.6H44.5516ZM49.3756 121.6V121.816C49.3756 121.816 49.3196 121.816 49.2076 121.816C49.0956 121.816 49.0396 121.816 49.0396 121.816C48.7356 121.816 48.4796 121.912 48.2716 122.104C48.0636 122.296 47.9596 122.544 47.9596 122.848H47.9116V121.6H49.3756ZM55.8796 121.6V122.848H55.8316C55.8156 122.544 55.7036 122.296 55.4956 122.104C55.2876 121.912 55.0396 121.816 54.7516 121.816C54.7516 121.816 54.6956 121.816 54.5836 121.816C54.4716 121.816 54.4156 121.816 54.4156 121.816V121.6H55.8796ZM58.8316 121.6V121.816C58.8316 121.816 58.7756 121.816 58.6636 121.816C58.5676 121.816 58.5196 121.816 58.5196 121.816C58.2156 121.816 57.9516 121.912 57.7276 122.104C57.5196 122.296 57.4156 122.544 57.4156 122.848H57.3676V121.6H58.8316ZM66.3215 121.6H68.9135C69.5695 121.6 70.2095 121.672 70.8335 121.816C71.4575 121.944 72.0175 122.16 72.5135 122.464C73.0095 122.752 73.4015 123.152 73.6895 123.664C73.9935 124.16 74.1455 124.784 74.1455 125.536C74.1455 126.096 74.0255 126.656 73.7855 127.216C73.5615 127.76 73.2015 128.232 72.7055 128.632C72.2255 129.032 71.5935 129.296 70.8095 129.424C71.2735 129.568 71.7135 129.848 72.1295 130.264C72.5615 130.68 72.8975 131.072 73.1375 131.44C73.2015 131.568 73.3135 131.776 73.4735 132.064C73.6335 132.336 73.8335 132.656 74.0735 133.024C74.3295 133.376 74.5935 133.744 74.8655 134.128C75.1855 134.56 75.4655 134.896 75.7055 135.136C75.9455 135.36 76.1935 135.52 76.4495 135.616C76.7055 135.712 77.0015 135.76 77.3375 135.76V136H75.3215C74.4575 136 73.7215 135.936 73.1135 135.808C72.5215 135.68 72.0015 135.448 71.5535 135.112C71.1215 134.76 70.7215 134.288 70.3535 133.696C70.2095 133.488 70.0575 133.24 69.8975 132.952C69.7375 132.648 69.5775 132.344 69.4175 132.04C69.2575 131.736 69.1135 131.44 68.9855 131.152C68.8735 130.864 68.7935 130.624 68.7455 130.432C68.5375 129.92 68.2975 129.552 68.0255 129.328C67.7695 129.088 67.5295 128.968 67.3055 128.968V128.752C67.3055 128.752 67.3615 128.752 67.4735 128.752C67.5855 128.752 67.7295 128.752 67.9055 128.752C68.2415 128.752 68.5695 128.696 68.8895 128.584C69.2255 128.456 69.5295 128.224 69.8015 127.888C70.0735 127.536 70.2735 127.024 70.4015 126.352C70.4335 126.256 70.4575 126.12 70.4735 125.944C70.5055 125.768 70.5135 125.568 70.4975 125.344C70.4655 124.752 70.3535 124.28 70.1615 123.928C69.9855 123.56 69.7615 123.288 69.4895 123.112C69.2175 122.92 68.9375 122.792 68.6495 122.728C68.3775 122.648 68.1375 122.608 67.9295 122.608C67.6255 122.592 67.3455 122.592 67.0895 122.608C66.8495 122.608 66.6655 122.6 66.5375 122.584C66.5215 122.584 66.4975 122.504 66.4655 122.344C66.4335 122.168 66.4015 122 66.3695 121.84C66.3375 121.68 66.3215 121.6 66.3215 121.6ZM66.5615 121.6V136H63.0815V121.6H66.5615ZM63.1535 134.488L63.2495 136H61.5215V135.76C61.5375 135.76 61.5775 135.76 61.6415 135.76C61.7215 135.76 61.7775 135.76 61.8095 135.76C62.1615 135.76 62.4575 135.64 62.6975 135.4C62.9535 135.144 63.0895 134.84 63.1055 134.488H63.1535ZM63.1535 123.088H63.1055C63.0895 122.72 62.9535 122.424 62.6975 122.2C62.4575 121.96 62.1695 121.84 61.8335 121.84C61.7855 121.84 61.7215 121.84 61.6415 121.84C61.5775 121.84 61.5375 121.84 61.5215 121.84V121.6H63.2495L63.1535 123.088ZM66.5135 134.488H66.5615C66.5615 134.888 66.6975 135.2 66.9695 135.424C67.2575 135.648 67.5615 135.76 67.8815 135.76C67.8815 135.76 67.9135 135.76 67.9775 135.76C68.0415 135.76 68.0895 135.76 68.1215 135.76V136H66.3935L66.5135 134.488ZM80.8704 121.6H84.8544C85.4784 121.6 86.1104 121.648 86.7504 121.744C87.3904 121.84 87.9744 122.016 88.5024 122.272C89.0304 122.528 89.4544 122.888 89.7744 123.352C90.0944 123.816 90.2544 124.424 90.2544 125.176C90.2544 125.784 90.1264 126.304 89.8704 126.736C89.6144 127.168 89.2864 127.504 88.8864 127.744C88.4864 127.984 88.0624 128.12 87.6144 128.152C88.3184 128.2 88.9504 128.384 89.5104 128.704C90.0704 129.024 90.5184 129.456 90.8544 130C91.2064 130.528 91.3824 131.16 91.3824 131.896C91.3824 132.648 91.2224 133.288 90.9024 133.816C90.5824 134.328 90.1424 134.752 89.5824 135.088C89.0224 135.408 88.3744 135.64 87.6384 135.784C86.9184 135.928 86.1584 136 85.3584 136H83.1984C83.1984 136 83.1984 135.92 83.1984 135.76C83.1984 135.6 83.1984 135.44 83.1984 135.28C83.1984 135.12 83.1984 135.04 83.1984 135.04H84.3504C84.9264 135.04 85.4464 134.936 85.9104 134.728C86.3904 134.504 86.7744 134.144 87.0624 133.648C87.3504 133.152 87.4944 132.496 87.4944 131.68C87.4944 131.12 87.4064 130.632 87.2304 130.216C87.0704 129.784 86.8384 129.44 86.5344 129.184C86.2304 128.912 85.8704 128.712 85.4544 128.584C85.0384 128.456 84.5824 128.392 84.0864 128.392V128.176C84.4384 128.176 84.7744 128.128 85.0944 128.032C85.4144 127.92 85.6864 127.76 85.9104 127.552C86.1504 127.328 86.3344 127.04 86.4624 126.688C86.6064 126.336 86.6784 125.912 86.6784 125.416C86.6784 124.344 86.4304 123.6 85.9344 123.184C85.4384 122.752 84.8144 122.536 84.0624 122.536H81.0864C81.0864 122.52 81.0624 122.44 81.0144 122.296C80.9824 122.136 80.9504 121.984 80.9184 121.84C80.8864 121.68 80.8704 121.6 80.8704 121.6ZM83.3664 121.6V136H79.9584V121.6H83.3664ZM80.0304 134.488V136H78.3984V135.76C78.4144 135.76 78.4544 135.76 78.5184 135.76C78.5984 135.76 78.6464 135.76 78.6624 135.76C79.0464 135.76 79.3584 135.64 79.5984 135.4C79.8544 135.144 79.9744 134.84 79.9584 134.488H80.0304ZM80.0304 123.112H79.9584C79.9744 122.728 79.8544 122.424 79.5984 122.2C79.3584 121.96 79.0464 121.84 78.6624 121.84C78.6464 121.84 78.5984 121.84 78.5184 121.84C78.4544 121.84 78.4144 121.84 78.3984 121.84V121.6H80.0304V123.112ZM102.929 121.288C104.209 121.288 105.369 121.464 106.409 121.816C107.449 122.152 108.345 122.648 109.097 123.304C109.849 123.96 110.425 124.752 110.825 125.68C111.241 126.608 111.449 127.656 111.449 128.824C111.449 129.976 111.241 131.016 110.825 131.944C110.425 132.856 109.849 133.64 109.097 134.296C108.345 134.952 107.449 135.456 106.409 135.808C105.369 136.144 104.209 136.312 102.929 136.312C101.665 136.312 100.513 136.144 99.4732 135.808C98.4332 135.456 97.5372 134.952 96.7852 134.296C96.0332 133.64 95.4572 132.856 95.0572 131.944C94.6572 131.016 94.4572 129.976 94.4572 128.824C94.4572 127.656 94.6572 126.608 95.0572 125.68C95.4572 124.752 96.0332 123.96 96.7852 123.304C97.5372 122.648 98.4332 122.152 99.4732 121.816C100.513 121.464 101.665 121.288 102.929 121.288ZM102.929 135.376C103.905 135.376 104.753 135.112 105.473 134.584C106.209 134.04 106.769 133.28 107.153 132.304C107.553 131.328 107.753 130.168 107.753 128.824C107.753 127.464 107.553 126.296 107.153 125.32C106.769 124.328 106.209 123.568 105.473 123.04C104.753 122.496 103.905 122.224 102.929 122.224C101.969 122.224 101.129 122.496 100.409 123.04C99.6892 123.568 99.1292 124.328 98.7292 125.32C98.3292 126.296 98.1292 127.464 98.1292 128.824C98.1292 130.168 98.3292 131.328 98.7292 132.304C99.1292 133.28 99.6892 134.04 100.409 134.584C101.129 135.112 101.969 135.376 102.929 135.376ZM115.423 121.264L129.511 133.648L129.751 136.312L115.687 123.928L115.423 121.264ZM115.519 134.536V136H113.743V135.76C113.743 135.76 113.807 135.76 113.935 135.76C114.063 135.76 114.127 135.76 114.127 135.76C114.495 135.76 114.807 135.648 115.063 135.424C115.319 135.184 115.447 134.888 115.447 134.536H115.519ZM118.735 134.536C118.751 134.888 118.887 135.184 119.143 135.424C119.399 135.648 119.703 135.76 120.055 135.76C120.055 135.76 120.119 135.76 120.247 135.76C120.391 135.76 120.463 135.76 120.463 135.76V136H118.687V134.536H118.735ZM115.423 121.264L118.735 124.864V136H115.447V124C115.447 123.184 115.407 122.528 115.327 122.032C115.247 121.52 115.207 121.264 115.207 121.264H115.423ZM129.727 121.6V133.504C129.727 134.064 129.743 134.56 129.775 134.992C129.823 135.408 129.863 135.736 129.895 135.976C129.943 136.2 129.967 136.312 129.967 136.312H129.751L126.439 132.496V121.6H129.727ZM129.655 123.064V121.6H131.455V121.84C131.455 121.84 131.383 121.84 131.239 121.84C131.111 121.84 131.047 121.84 131.047 121.84C130.695 121.84 130.383 121.96 130.111 122.2C129.855 122.424 129.727 122.712 129.727 123.064H129.655ZM126.439 123.064C126.423 122.712 126.287 122.424 126.031 122.2C125.791 121.96 125.487 121.84 125.119 121.84C125.119 121.84 125.047 121.84 124.903 121.84C124.775 121.84 124.711 121.84 124.711 121.84V121.6H126.487V123.064H126.439ZM135.595 136.24C135.115 136.24 134.707 136.072 134.371 135.736C134.035 135.4 133.867 134.992 133.867 134.512C133.867 134.016 134.035 133.6 134.371 133.264C134.707 132.928 135.115 132.76 135.595 132.76C136.091 132.76 136.507 132.928 136.843 133.264C137.179 133.6 137.347 134.016 137.347 134.512C137.347 134.992 137.179 135.4 136.843 135.736C136.507 136.072 136.091 136.24 135.595 136.24ZM145.908 119.2V136H142.308V119.2H145.908ZM142.38 134.248V136H140.46V135.76C140.46 135.76 140.508 135.76 140.604 135.76C140.716 135.76 140.772 135.76 140.772 135.76C141.188 135.76 141.54 135.616 141.828 135.328C142.132 135.024 142.292 134.664 142.308 134.248H142.38ZM142.38 120.952H142.308C142.292 120.536 142.132 120.184 141.828 119.896C141.54 119.592 141.188 119.44 140.772 119.44C140.772 119.44 140.716 119.44 140.604 119.44C140.508 119.44 140.46 119.44 140.46 119.44V119.2H142.38V120.952ZM145.836 134.248H145.908C145.924 134.664 146.076 135.024 146.364 135.328C146.668 135.616 147.028 135.76 147.444 135.76C147.444 135.76 147.492 135.76 147.588 135.76C147.684 135.76 147.74 135.76 147.756 135.76V136H145.836V134.248ZM145.836 120.952V119.2H147.756V119.44C147.74 119.44 147.684 119.44 147.588 119.44C147.492 119.44 147.444 119.44 147.444 119.44C147.028 119.44 146.668 119.592 146.364 119.896C146.076 120.184 145.924 120.536 145.908 120.952H145.836ZM158.288 118.72L166.136 135.856H161.816L156.824 123.352L158.288 118.72ZM153.128 134.248C153 134.568 152.976 134.84 153.056 135.064C153.136 135.288 153.272 135.464 153.464 135.592C153.656 135.704 153.848 135.76 154.04 135.76H154.256V136H149.12V135.76C149.12 135.76 149.16 135.76 149.24 135.76C149.304 135.76 149.336 135.76 149.336 135.76C149.704 135.76 150.08 135.648 150.464 135.424C150.864 135.184 151.192 134.792 151.448 134.248H153.128ZM158.288 118.72L158.384 121.648L152.432 135.928H150.68L156.896 121.864C156.944 121.768 157.024 121.592 157.136 121.336C157.264 121.064 157.392 120.76 157.52 120.424C157.664 120.088 157.792 119.768 157.904 119.464C158.016 119.144 158.072 118.896 158.072 118.72H158.288ZM160.808 130.288V131.296H153.752V130.288H160.808ZM161.168 134.248H165.368C165.64 134.792 165.968 135.184 166.352 135.424C166.736 135.648 167.112 135.76 167.48 135.76C167.48 135.76 167.512 135.76 167.576 135.76C167.64 135.76 167.672 135.76 167.672 135.76V136H160.04V135.76H160.256C160.576 135.76 160.856 135.632 161.096 135.376C161.336 135.104 161.36 134.728 161.168 134.248Z" fill="#F8F9FA"/>
</svg>
